HIERARCHY
ROOT root
{
	OFFSET	0	13.1	24.9
	CHANNELS 6  Xposition Yposition Zposition Xrotation Yrotation Zrotation
	JOINT spine_1
	{
		OFFSET	0	9.99999	0
		CHANNELS 3  Xrotation Yrotation Zrotation
		JOINT spine_2
		{
			OFFSET	0	112	-10
			CHANNELS 3  Xrotation Yrotation Zrotation
			JOINT spine_3
			{
				OFFSET	0	206.5	19.3
				CHANNELS 3  Xrotation Yrotation Zrotation
				JOINT spine_4
				{
					OFFSET	0	110.4	14.6
					CHANNELS 3  Xrotation Yrotation Zrotation
					JOINT neck_1
					{
						OFFSET	0	71.8	-50.3
						CHANNELS 3  Xrotation Yrotation Zrotation
						JOINT neck_2
						{
							OFFSET	0	86.2	-25.8
							CHANNELS 3  Xrotation Yrotation Zrotation
							JOINT head_ee
							{
								OFFSET	0	179.8	-8.7
								CHANNELS 3  Xrotation Yrotation Zrotation
								End Site
								{
									OFFSET	1	0	0
								}
							}
						}
					}
					JOINT left_clavicle
					{
						OFFSET	-43.2	22.4	-70.8
						CHANNELS 3  Xrotation Yrotation Zrotation
						JOINT left_shoulder
						{
							OFFSET	-93.9	-5.79999	48.7
							CHANNELS 3  Xrotation Yrotation Zrotation
							JOINT left_elbow
							{
								OFFSET	-291.4	-30.8	15.2
								CHANNELS 3  Xrotation Yrotation Zrotation
								JOINT left_lowarm_twist
								{
									OFFSET	-110.7	-3.89999	13.6
									CHANNELS 3  Xrotation Yrotation Zrotation
									JOINT left_hand
									{
										OFFSET	-110.7	-3.89999	13.6
										CHANNELS 3  Xrotation Yrotation Zrotation
										JOINT left_ee
										{
											OFFSET	-80.8	-5.10001	12.1
											CHANNELS 3  Xrotation Yrotation Zrotation
											End Site
											{
												OFFSET	1	0	0
											}
										}
									}
								}
							}
						}
					}
					JOINT right_clavicle
					{
						OFFSET	43.2	22.4	-70.8
						CHANNELS 3  Xrotation Yrotation Zrotation
						JOINT right_shoulder
						{
							OFFSET	93.9	-5.79999	48.7
							CHANNELS 3  Xrotation Yrotation Zrotation
							JOINT right_elbow
							{
								OFFSET	291.4	-30.8	15.2
								CHANNELS 3  Xrotation Yrotation Zrotation
								JOINT right_lowarm_twist
								{
									OFFSET	110.7	-3.89999	13.6
									CHANNELS 3  Xrotation Yrotation Zrotation
									JOINT right_hand
									{
										OFFSET	110.7	-3.89999	13.6
										CHANNELS 3  Xrotation Yrotation Zrotation
										JOINT right_ee
										{
											OFFSET	80.8	-5.10001	12.1
											CHANNELS 3  Xrotation Yrotation Zrotation
											End Site
											{
												OFFSET	1	0	0
											}
										}
									}
								}
							}
						}
					}
				}
			}
		}
	}
	JOINT left_hip
	{
		OFFSET	-82.8	-127.5	0.300001
		CHANNELS 3  Xrotation Yrotation Zrotation
		JOINT left_knee
		{
			OFFSET	-28.2	-396.7	2.2
			CHANNELS 3  Xrotation Yrotation Zrotation
			JOINT left_ankle
			{
				OFFSET	-11.7	-411.3	35.4
				CHANNELS 3  Xrotation Yrotation Zrotation
				JOINT left_toes
				{
					OFFSET	0	-60	-88.6
					CHANNELS 3  Xrotation Yrotation Zrotation
					JOINT left_foot_ee
					{
						OFFSET	-22.5	-16.5	-42.2
						CHANNELS 3  Xrotation Yrotation Zrotation
						End Site
						{
							OFFSET	1	0	0
						}
					}
				}
			}
		}
	}
	JOINT right_hip
	{
		OFFSET	82.8	-127.5	0.300001
		CHANNELS 3  Xrotation Yrotation Zrotation
		JOINT right_knee
		{
			OFFSET	28.2	-396.7	2.2
			CHANNELS 3  Xrotation Yrotation Zrotation
			JOINT right_ankle
			{
				OFFSET	11.7	-411.3	35.4
				CHANNELS 3  Xrotation Yrotation Zrotation
				JOINT right_toes
				{
					OFFSET	0	-60	-88.6
					CHANNELS 3  Xrotation Yrotation Zrotation
					JOINT right_foot_ee
					{
						OFFSET	22.5	-16.5	-42.2
						CHANNELS 3  Xrotation Yrotation Zrotation
						End Site
						{
							OFFSET	1	0	0
						}
					}
				}
			}
		}
	}
}
MOTION
Frames: 16
Frame Time: 0.02
2978.45 720.369 -513.333 -158.361 -56.054 -160.576 7.45261 -0.132196 -1.72997 7.45428 -0.021863 -1.73487 7.45241 0.1198 -1.73087 7.44827 -0.15502 -1.72807 -18.2243 7.23617 -0.149817 -18.4697 14.0024 2.6952 -0.0 0.0 -0.0 4.51247 11.0253 9.00222 -35.4257 -14.5588 69.5092 1.08399 -28.234 0.27263 -13.3501 -0.656781 1.57169 0.334045 16.417 8.76312 -0.0 0.0 -0.0 4.76361 13.1358 -8.4798 -16.6241 0.0526586 -64.4834 1.83041 42.1955 -0.706265 77.0446 3.50221 8.43447 1.11717 -19.2865 -14.6369 0.0 0.0 0.0 32.2142 -25.4544 -2.87978 4.37629 -0.204794 -0.640057 -25.38 30.1859 4.10446 15.5898 -0.0 -0.0 -0.0 0.0 -0.0 10.6527 0.653785 2.92999 -28.2606 -0.106749 -4.29187 21.9827 13.8017 3.17868 18.8655 -0.0 -0.0 0.0 0.0 0.0 
3000.32 723.878 -514.021 -157.864 -54.6263 -160.159 7.53192 -0.0814563 -1.95878 7.53405 0.0433265 -1.95999 7.52932 0.200576 -1.95019 7.52403 -0.109876 -1.95739 -19.4106 7.74796 0.0820861 -19.7195 14.8841 3.28217 -0.0 0.0 -0.0 4.62287 11.4044 9.19568 -34.2846 -13.3471 69.9584 1.13181 -29.2768 0.295633 -14.1498 -0.707567 1.66054 0.163531 16.3784 7.69134 -0.0 0.0 -0.0 4.7058 13.5977 -8.3237 -18.5653 -0.0126623 -64.1733 1.71293 40.3123 -0.628788 77.5621 3.56045 8.46641 1.09265 -18.8405 -14.3366 0.0 0.0 0.0 31.3763 -25.963 -3.40635 4.96349 -0.235983 -0.724715 -24.3124 29.463 3.9126 17.0875 -0.0 -0.0 -0.0 0.0 -0.0 10.6765 -1.00013 4.13526 -27.5327 -0.130634 -4.1827 21.996 13.9318 3.1831 18.9732 -0.0 -0.0 0.0 0.0 0.0 
3021.62 725.303 -516.135 -156.967 -54.1891 -159.014 7.69496 -0.199765 -2.20435 7.69766 -0.0591269 -2.21259 7.69565 0.112265 -2.21053 7.68891 -0.238169 -2.20053 -20.0331 8.31975 0.550355 -20.3975 15.758 4.05356 -0.0 0.0 -0.0 4.94938 11.606 9.75653 -33.3284 -13.3918 69.2205 1.1626 -29.9373 0.310845 -14.5791 -0.735342 1.70794 0.113399 16.0482 7.25391 -0.0 0.0 -0.0 4.76312 14.1512 -8.40415 -19.8657 -0.731416 -63.4924 1.54951 37.5065 -0.526115 77.8689 3.59511 8.4851 0.993136 -18.5076 -13.605 0.0 0.0 0.0 31.5705 -26.0177 -2.82676 4.61223 -0.217221 -0.67411 -24.4405 30.0132 3.94784 16.7793 -0.0 -0.0 -0.0 0.0 -0.0 10.9463 -0.605661 4.67984 -28.1806 -0.109441 -4.27989 21.6059 14.6173 3.14784 18.8848 -0.0 -0.0 0.0 0.0 0.0 
3049.36 730.949 -512.179 -155.895 -53.8074 -157.863 7.92023 -0.308287 -2.34967 7.92329 -0.15819 -2.36452 7.9247 0.0157019 -2.36975 7.91704 -0.358648 -2.34252 -20.2907 8.90408 1.53436 -20.687 16.3973 5.2599 -0.0 0.0 -0.0 5.06338 11.4998 9.95249 -32.2957 -13.433 68.5884 1.171 -30.116 0.31505 -14.8659 -0.754098 1.7395 -0.00768673 16.1716 6.55212 -0.0 0.0 -0.0 4.68476 14.5593 -8.20679 -22.3046 -1.29653 -63.7474 1.35097 33.7899 -0.410343 77.7976 3.58705 8.48077 0.853285 -18.2589 -12.6504 0.0 0.0 0.0 31.3764 -24.6847 -2.57988 4.28432 -0.199988 -0.62677 -24.1224 30.5812 3.91176 16.8061 -0.0 -0.0 -0.0 0.0 -0.0 11.2082 -0.225481 5.0459 -28.2004 -0.108776 -4.28286 20.0334 15.8393 2.96915 18.6234 -0.0 -0.0 0.0 0.0 0.0 
3070.96 738.254 -511.472 -154.521 -55.3005 -156.264 8.04617 -0.541893 -2.51959 8.04962 -0.38052 -2.54894 8.06048 -0.198812 -2.56949 8.05177 -0.601992 -2.50591 -20.4869 9.13302 1.53223 -20.9133 16.8469 5.39366 -0.0 0.0 -0.0 5.7078 10.2642 11.0831 -31.34 -14.0359 68.6122 1.19059 -30.5302 0.32494 -15.2396 -0.778769 1.78048 -0.0834069 15.8056 5.93987 -0.0 0.0 -0.0 4.60841 14.7026 -8.0334 -24.3815 -1.62159 -63.5644 1.19091 30.5371 -0.325106 77.904 3.59909 8.48723 0.683439 -18.2131 -11.5821 0.0 0.0 0.0 30.821 -24.2177 -1.47844 4.50089 -0.21134 -0.658047 -24.3611 30.3571 3.94434 16.5169 -0.0 -0.0 -0.0 0.0 -0.0 11.787 -0.0263276 4.86234 -28.3804 -0.102686 -4.3098 20.5252 14.981 3.01544 18.6194 -0.0 -0.0 0.0 0.0 0.0 
3095.87 747.068 -506.614 -153.95 -57.0531 -155.07 8.08727 -0.701185 -2.67142 8.09108 -0.52984 -2.71058 8.10928 -0.33881 -2.741 8.09962 -0.767296 -2.6532 -20.5487 9.44798 2.29151 -20.9797 17.0804 6.24411 -0.0 0.0 -0.0 6.10084 9.83233 11.7847 -30.7312 -14.3341 68.1617 1.20273 -30.7852 0.331132 -15.6463 -0.805927 1.82489 -0.211087 15.6275 5.07853 -0.0 0.0 -0.0 4.51814 14.605 -7.84906 -26.6149 -2.28725 -63.9355 1.0051 26.4681 -0.236382 77.9273 3.60171 8.48864 0.496518 -18.0065 -10.3545 0.0 0.0 0.0 29.677 -23.41 -0.818729 4.01779 -0.186181 -0.588219 -24.7597 30.0905 4.00154 16.3876 -0.0 -0.0 -0.0 0.0 -0.0 13.1848 -0.267007 4.49975 -28.9541 -0.0827047 -4.39558 20.5089 15.0196 3.01412 18.5258 -0.0 -0.0 0.0 0.0 0.0 
3115.62 747.663 -503.041 -154.348 -58.1323 -155.019 8.06107 -0.856671 -2.8505 8.06534 -0.673629 -2.89918 8.09166 -0.468354 -2.9393 8.0808 -0.926499 -2.82859 -20.4293 9.6627 2.76793 -20.8575 17.2516 6.7581 -0.0 0.0 -0.0 6.36554 9.30327 12.2688 -30.1014 -14.6575 67.7872 1.1989 -30.705 0.329175 -15.8506 -0.819692 1.84714 -0.316387 15.4884 4.37067 -0.0 0.0 -0.0 4.20791 14.1724 -7.22463 -28.1822 -2.57034 -64.5995 0.873783 23.405 -0.180995 77.784 3.58551 8.47995 0.334713 -18.0215 -9.36484 0.0 0.0 0.0 28.9154 -22.7655 -0.361671 3.80963 -0.175523 -0.558068 -24.6352 29.9583 3.97783 16.3682 -0.0 -0.0 -0.0 0.0 -0.0 13.6162 -0.199041 4.74465 -31.5594 0.0188133 -4.78248 20.5037 15.1079 3.01533 18.6114 -0.0 -0.0 0.0 0.0 0.0 
3134.34 754.901 -494.51 -153.765 -59.6292 -153.416 8.23741 -0.864155 -3.07686 8.24243 -0.666713 -3.12555 8.26947 -0.455417 -3.16322 8.25676 -0.949042 -3.05177 -20.3169 9.82207 4.32711 -20.6801 16.7746 8.23617 -0.0 0.0 -0.0 7.14233 8.49489 13.6987 -27.8039 -15.2556 66.0372 1.15795 -29.8383 0.308532 -15.7889 -0.815525 1.84042 -0.182478 15.7681 5.3118 -0.0 0.0 -0.0 3.97098 11.8686 -6.90443 -34.3964 -3.20563 -65.3199 0.773252 20.9591 -0.143031 76.4439 3.43498 8.39673 0.440829 -18.6113 -10.2316 0.0 0.0 0.0 28.1472 -22.4329 -0.0571314 2.90125 -0.1303 -0.426057 -23.3227 30.1089 3.7694 17.1995 -0.0 -0.0 -0.0 0.0 -0.0 16.0838 3.22664 2.81233 -36.811 0.276449 -5.54666 20.4458 12.3857 2.95407 18.9385 -0.0 -0.0 0.0 0.0 0.0 
3149.31 751.898 -484.614 -153.227 -60.4642 -151.909 8.32005 -0.687986 -3.25079 8.3258 -0.47985 -3.28793 8.34277 -0.262035 -3.31238 8.32831 -0.781601 -3.22958 -20.0029 10.2221 6.47315 -20.2669 16.437 10.3174 -0.0 0.0 -0.0 7.47809 6.88422 14.381 -26.6867 -15.9165 64.3226 1.16808 -30.0539 0.313584 -15.1347 -0.771818 1.76899 0.240474 14.6632 7.51294 -0.0 0.0 -0.0 3.96585 10.4352 -7.00128 -38.3257 -3.84996 -65.925 0.715459 19.5152 -0.123038 76.1947 3.40721 8.38088 0.350793 -19.842 -10.1293 0.0 0.0 0.0 26.972 -21.1375 -1.02343 2.25403 -0.0993614 -0.331579 -18.8223 29.4657 3.02459 19.368 -0.0 -0.0 -0.0 0.0 -0.0 17.5723 2.45836 1.98628 -40.1769 0.478061 -6.02303 18.8868 12.7675 2.75725 19.6068 -0.0 -0.0 0.0 0.0 0.0 
3163.62 754.126 -477.189 -152.174 -60.7636 -150.487 8.32534 -0.586956 -3.11297 8.33065 -0.387781 -3.14397 8.34224 -0.179473 -3.16269 8.32892 -0.676467 -3.09477 -21.4332 9.73518 7.54306 -21.6309 15.1604 11.3179 -0.0 0.0 -0.0 8.04597 5.02538 15.5305 -25.8806 -16.3484 62.5379 1.15047 -29.6783 0.30482 -14.3555 -0.72083 1.68328 0.486501 13.4381 8.59737 -0.0 0.0 -0.0 3.84121 9.1879 -6.83357 -41.16 -3.92258 -67.2652 0.774838 20.9983 -0.143598 75.8279 3.36645 8.35731 0.306557 -20.5797 -10.1294 0.0 0.0 0.0 25.732 -20.0731 -1.63282 2.44585 -0.10842 -0.359616 -13.5098 28.9493 2.1553 22.0839 -0.0 -0.0 -0.0 0.0 -0.0 18.6283 2.74439 1.30834 -41.7714 0.583291 -6.24446 17.3263 13.0695 2.5539 19.4925 -0.0 -0.0 0.0 0.0 0.0 
3177.5 756.609 -469.509 -151.903 -61.0292 -149.745 8.36499 -0.725276 -3.18973 8.3705 -0.520944 -3.22936 8.38961 -0.309626 -3.2564 8.37575 -0.81977 -3.16679 -22.0145 9.05478 8.23212 -22.1198 13.6017 11.7244 -0.0 0.0 -0.0 8.44807 2.63595 16.4076 -25.8181 -16.2564 61.3895 1.16932 -30.0803 0.314206 -12.357 -0.595453 1.46038 0.686086 11.1625 9.01158 -0.0 0.0 -0.0 2.99361 8.56564 -5.1336 -42.3712 -3.13199 -68.694 0.869805 23.3098 -0.179417 75.6727 3.34926 8.34727 -0.264714 -24.028 -8.04378 0.0 0.0 0.0 23.9517 -18.9841 -2.46009 3.42572 -0.156155 -0.502362 -8.1132 28.6623 1.28377 24.4332 -0.0 -0.0 -0.0 0.0 -0.0 21.4035 2.89367 0.853555 -45.9095 0.884869 -6.80491 14.5173 11.8014 2.15067 19.6295 -0.0 -0.0 0.0 0.0 0.0 
3186.08 757.707 -461.752 -152.216 -60.6765 -149.391 8.31352 -0.81356 -3.42332 8.31985 -0.594211 -3.46808 8.3441 -0.364583 -3.49964 8.32817 -0.912391 -3.39834 -23.7048 7.7921 6.55901 -23.851 12.1388 9.8458 -0.0 0.0 -0.0 8.90102 0.985152 17.3718 -25.3021 -16.2321 60.5328 1.17786 -30.2616 0.318501 -10.9919 -0.514326 1.30571 0.473215 9.45735 6.97792 -0.0 0.0 -0.0 2.22057 7.56952 -3.63481 -41.7334 -3.89074 -70.3335 0.875522 23.4465 -0.181686 75.5487 3.33554 8.3392 -0.531403 -24.0256 -6.50989 0.0 0.0 0.0 22.8772 -17.9919 -3.2508 3.83285 -0.176707 -0.561433 -5.59547 28.9564 0.883668 24.4122 -0.0 -0.0 -0.0 0.0 -0.0 23.147 2.43065 0.642638 -48.35 1.08153 -7.12493 13.1407 11.3385 1.95293 18.3584 -0.0 -0.0 0.0 0.0 0.0 
3187.35 756.321 -454.739 -154.16 -58.322 -150.697 8.43991 -0.681472 -3.53359 8.44674 -0.455387 -3.56973 8.46241 -0.226534 -3.59149 8.44528 -0.790548 -3.51082 -24.3204 8.08502 6.73967 -24.4977 12.6928 10.2495 -0.0 0.0 -0.0 9.08973 -0.0364842 17.7901 -24.2784 -15.3128 58.598 1.1534 -29.741 0.306271 -9.48503 -0.429094 1.1328 0.450725 8.36303 6.40135 -0.0 0.0 -0.0 0.978132 7.94983 -1.059 -40.7298 -0.36173 -73.028 0.909693 24.2577 -0.195504 74.1746 3.18466 8.24789 -0.972568 -25.9277 -4.78516 0.0 0.0 0.0 21.159 -16.0746 -5.06234 6.00745 -0.293574 -0.874434 -6.05527 29.1836 0.958406 25.6752 -0.0 -0.0 -0.0 0.0 -0.0 25.0207 2.6755 -0.40717 -46.6599 0.943873 -6.90418 10.1025 12.0135 1.52642 19.4549 -0.0 -0.0 0.0 0.0 0.0 
3197.82 760.542 -453.297 -155.437 -57.4941 -151.25 8.11403 -0.584708 -3.72061 8.12166 -0.346942 -3.75022 8.13104 -0.0847586 -3.76526 8.1119 -0.677935 -3.70478 -26.1463 6.61193 4.41394 -26.3487 10.9694 7.59556 -0.0 0.0 -0.0 9.28098 -0.109712 18.1828 -23.367 -14.7383 57.7041 1.2714 -32.2018 0.367006 -8.33889 -0.367337 0.999846 0.388748 6.63916 5.30998 -0.0 0.0 -0.0 -0.254852 6.6001 1.30263 -38.9862 0.638936 -74.0539 0.885076 23.6743 -0.185505 73.1186 3.07023 8.17529 -1.22027 -24.4493 -2.75909 0.0 0.0 0.0 20.4125 -14.7446 -5.8538 4.94346 -0.234905 -0.721832 -6.03797 28.7693 0.953079 26.6353 -0.0 -0.0 -0.0 0.0 -0.0 28.6905 2.4164 -1.48301 -45.5341 0.855838 -6.75496 5.44625 12.3417 0.83859 18.5662 -0.0 -0.0 0.0 0.0 0.0 
3201.89 764.282 -450.39 -157.329 -55.4077 -153.224 8.06584 -0.552883 -3.71727 8.07348 -0.315393 -3.74487 8.08091 -0.0502994 -3.75777 8.06178 -0.642725 -3.70281 -26.7688 6.51465 5.10555 -26.9409 10.5521 8.25997 -0.0 0.0 -0.0 9.42712 -1.13199 18.5187 -22.7229 -13.7702 56.6632 1.26161 -32.0025 0.361802 -7.95508 -0.347254 0.955054 0.021849 8.54842 3.69335 -0.0 0.0 -0.0 -0.817818 5.43195 2.29653 -37.548 1.32809 -73.6275 0.890105 23.7939 -0.187529 72.1588 2.9674 8.10748 -1.31983 -23.5689 -1.80452 0.0 0.0 0.0 19.2575 -13.4585 -6.60277 5.09153 -0.242899 -0.743132 -4.98032 28.9334 0.785602 26.5602 -0.0 -0.0 -0.0 0.0 -0.0 30.7478 1.23969 -2.07726 -44.1973 0.755155 -6.57561 2.62301 12.8611 0.408896 18.0756 -0.0 -0.0 0.0 0.0 0.0 
3195.56 766.86 -448.629 -157.685 -54.0699 -153.204 7.99711 -0.497175 -3.88 8.00545 -0.249465 -3.90373 8.0083 0.0317996 -3.91155 7.98743 -0.585886 -3.86762 -28.762 5.91214 5.5904 -28.8886 9.35931 8.61922 -0.0 0.0 -0.0 9.13803 -1.70264 17.9387 -20.9112 -13.0336 56.1864 1.37893 -34.3343 0.426002 -6.54663 -0.276142 0.789567 -0.12285 5.74558 1.59566 -0.0 0.0 -0.0 -0.730302 6.565 2.26572 -35.7512 1.71479 -75.3177 0.812485 21.9237 -0.157373 71.5105 2.89859 8.06071 -1.39756 -21.4942 -0.426088 0.0 0.0 0.0 19.8004 -12.0428 -7.68675 6.16347 -0.302415 -0.89672 -9.48287 29.2786 1.50927 26.2102 -0.0 -0.0 -0.0 0.0 -0.0 31.4749 -1.4125 -2.43015 -41.6896 0.57774 -6.23316 0.149206 15.1812 0.0238177 16.3994 -0.0 -0.0 0.0 0.0 0.0 
